<svg class="svg-icon" style="width: 1em; height: 1em;vertical-align: middle;fill: currentColor;overflow: hidden;" viewBox="0 0 1024 1024" version="1.1" xmlns="http://www.w3.org/2000/svg"><path d="M768 597.333333 448 597.333333 533.333333 512 768 512M256 597.333333 256 490.666667 549.546667 197.973333C557.653333 189.866667 571.306667 189.866667 579.84 197.973333L654.933333 273.493333C663.466667 282.026667 663.466667 295.253333 654.933333 303.786667L361.386667 597.333333M853.333333 85.333333 170.666667 85.333333C123.733333 85.333333 85.333333 123.733333 85.333333 170.666667L85.333333 938.666667 256 768 853.333333 768C900.266667 768 938.666667 729.6 938.666667 682.666667L938.666667 170.666667C938.666667 123.306667 900.266667 85.333333 853.333333 85.333333Z"  /></svg>